<?xml version="1.0" encoding="UTF-8"?>
<svg version="1.1" xmlns="http://www.w3.org/2000/svg" width="500" height="500">
<path d="M0 0 C165 0 330 0 500 0 C500 165 500 330 500 500 C335 500 170 500 0 500 C0 335 0 170 0 0 Z " fill="#C772A2" transform="translate(0,0)"/>
<path d="M0 0 C1.02287109 0.11214844 2.04574219 0.22429687 3.09960938 0.33984375 C9.43168922 1.04973782 15.7130369 1.96758204 22 3 C23.17433594 3.18900879 24.34867187 3.37801758 25.55859375 3.57275391 C46.1557909 6.94080012 66.25976429 11.59502417 86.40258789 17.04199219 C90.25926302 18.06904297 94.12599433 19.04063602 98 20 C98 15.05 98 10.1 98 5 C103.61 5 109.22 5 115 5 C115 29.42 115 53.84 115 79 C98 79 98 79 92.0625 73.125 C90.54223633 71.17285156 90.54223633 71.17285156 89.45703125 69.515625 C69.39879185 40.25122861 25.71689441 22.62907135 -7.82495117 16.0925293 C-30.57691293 12.13875446 -54.94233172 11.5745948 -77 19 C-78.18464844 19.39574219 -79.36929688 19.79148438 -80.58984375 20.19921875 C-92.73214536 24.80808733 -102.46039852 32.12617762 -108.140625 43.91015625 C-108.56601562 44.94462891 -108.56601562 44.94462891 -109 46 C-109.51308968 47.182808 -109.51308968 47.182808 -110.0365448 48.38951111 C-111.4155883 53.55739151 -111.28646742 58.53084357 -111.2746582 63.85766602 C-111.27976913 65.04710312 -111.28488007 66.23654022 -111.29014587 67.46202087 C-111.30164298 70.71454869 -111.30411824 73.96691799 -111.30158257 77.21946073 C-111.30050906 79.9449509 -111.30540655 82.67041787 -111.310188 85.39590305 C-111.32127259 91.83630017 -111.3217282 98.27663898 -111.31567383 104.71704102 C-111.30965083 111.33121643 -111.32190462 117.9451782 -111.3432439 124.55931717 C-111.36095018 130.25982015 -111.36684666 135.96025573 -111.36360615 141.66078514 C-111.36180554 145.05545129 -111.36430455 148.44996547 -111.37832069 151.8446064 C-111.39075351 155.64209185 -111.38385085 159.43909368 -111.37231445 163.23657227 C-111.37995819 164.33989899 -111.38760193 165.44322571 -111.39547729 166.57998657 C-111.29532321 181.60892317 -107.19904349 196.24197075 -96.71484375 207.44921875 C-82.94458019 219.90205391 -65.91998273 223.59459743 -47.75 223.5 C-46.48236816 223.49500488 -45.21473633 223.49000977 -43.90869141 223.48486328 C-28.39862968 223.19760323 -13.22666138 219.49936394 -1.25 209 C10.81951846 195.85440399 11.40823674 179.15585695 11.48046875 162.31225586 C11.49994047 159.57088064 11.56217079 156.83247562 11.625 154.09179688 C11.77459887 141.61602881 10.29061566 132.85119106 1.8125 123.125 C-7.85616554 114.35674234 -18.5582967 111.72978802 -31.18359375 111.5859375 C-32.23909927 111.56657135 -33.2946048 111.5472052 -34.38209534 111.5272522 C-37.7338162 111.46775447 -41.08557197 111.42119035 -44.4375 111.375 C-46.71811345 111.3367928 -48.99871289 111.29773949 -51.27929688 111.2578125 C-56.85275003 111.1620774 -62.4262707 111.07793653 -68 111 C-68 106.05 -68 101.1 -68 96 C24.07 96 116.14 96 211 96 C211 100.95 211 105.9 211 111 C188.89 111 166.78 111 144 111 C144 150.6 144 190.2 144 231 C138.72 231 133.44 231 128 231 C127.608125 229.47375 127.21625 227.9475 126.8125 226.375 C125.08830797 220.77533048 123.11555307 216.86350838 117.91015625 213.75 C108.04420678 209.14482423 98.43480886 210.37914174 88.25390625 213.125 C87.4289566 213.3450621 86.60400696 213.56512421 85.75405884 213.79185486 C75.82538301 216.50569135 66.16340662 219.96330923 56.47412109 223.41870117 C0.92444482 243.15776722 -64.198344 245.72709233 -122.00976562 235.34375 C-125.05835863 234.81720204 -128.12168605 234.41244134 -131.1875 234 C-144.10123155 232.15732137 -156.37509784 229.51626477 -168.828125 225.66162109 C-171.04576811 224.9860576 -173.27043004 224.34205366 -175.5 223.70703125 C-183.1706789 221.51888063 -190.68576467 219.21618859 -198 216 C-198.78890625 215.6596875 -199.5778125 215.319375 -200.390625 214.96875 C-204.65977349 213.10276457 -208.85299648 211.12666847 -213 209 C-213 208.34 -213 207.68 -213 207 C-213.7115625 206.90332031 -214.423125 206.80664062 -215.15625 206.70703125 C-231.53116813 202.63579474 -249.16455183 181.51890817 -257.37890625 167.87890625 C-270.44120681 144.68151946 -274.16097596 116.92023973 -268.16015625 90.8515625 C-264.08638793 76.67769701 -258.32137859 64.42620601 -249 53 C-248.36578125 52.1853125 -247.7315625 51.370625 -247.078125 50.53125 C-241.35270433 43.58244885 -234.17995987 38.34375314 -227 33 C-226.01515625 32.25621094 -225.0303125 31.51242188 -224.015625 30.74609375 C-217.53409091 26 -217.53409091 26 -213 26 C-213 25.34 -213 24.68 -213 24 C-210.01108021 22.63663308 -207.01372293 21.30715693 -204 20 C-202.94425781 19.54109375 -201.88851562 19.0821875 -200.80078125 18.609375 C-176.88374107 8.61105237 -151.04364317 3.03159294 -125.33105469 0.35595703 C-121.88543737 -0.01224218 -118.44775926 -0.43002242 -115.0078125 -0.84765625 C-76.95653067 -5.16896866 -38.01133194 -4.35957384 0 0 Z " fill="#0DBFDE" transform="translate(287,120)"/>
<path d="M0 0 C-1.26416994 3.79250981 -2.3921748 4.01448455 -5.8125 5.9375 C-26.37921907 18.66165694 -39.83261533 42.15967898 -45.80786133 65.10180664 C-47.87791874 73.94802173 -48.47403004 82.30643673 -48.375 91.375 C-48.36702393 92.39480453 -48.36702393 92.39480453 -48.35888672 93.43521118 C-48.0772765 124.18984468 -36.91736403 150.45569749 -15 172 C-10.33090497 176.41816478 -5.18075212 180.20526728 0 184 C-3.48094623 185.23232021 -5.18618414 184.81021834 -8.4921875 183.26171875 C-9.78697021 182.6574707 -9.78697021 182.6574707 -11.10791016 182.04101562 C-12.47761963 181.37102539 -12.47761963 181.37102539 -13.875 180.6875 C-14.81520996 180.23181641 -15.75541992 179.77613281 -16.72412109 179.30664062 C-42.64792057 166.40905142 -62.29845087 145.28373936 -71.77734375 117.7890625 C-78.7193082 96.27562634 -75.8631746 72.84456644 -65.93066406 52.80126953 C-61.39888308 44.03015723 -55.46591414 36.4229628 -49 29 C-48.20722656 28.07960937 -48.20722656 28.07960937 -47.3984375 27.140625 C-37.37316724 16.34418011 -24.28436293 8.98651549 -11 3 C-10.37867187 2.70867187 -9.75734375 2.41734375 -9.1171875 2.1171875 C-5.7578445 0.5876143 -3.77091732 0 0 0 Z " fill="#985BE7" transform="translate(114,143)"/>
<path d="M0 0 C7.59 0 15.18 0 23 0 C23.0684106 7.28590481 23.12317561 14.57162728 23.15543652 21.85778809 C23.17093828 25.2428808 23.1918835 28.62773806 23.22631836 32.01269531 C23.68105524 80.26830315 23.68105524 80.26830315 10.4921875 93.8671875 C8.4164109 95.44303885 6.58541063 95.92395851 4 96 C1.1536566 88.69851042 -0.15096125 82.70732365 -0.11352539 74.81323242 C-0.11367142 74.00295593 -0.11381744 73.19267944 -0.1139679 72.35784912 C-0.11327347 69.69036138 -0.10550312 67.02294423 -0.09765625 64.35546875 C-0.0957904 62.5017348 -0.09436728 60.64800036 -0.09336853 58.79426575 C-0.08955651 53.92317333 -0.07973746 49.05211088 -0.06866455 44.18103027 C-0.05842215 39.20727951 -0.05386485 34.2335239 -0.04882812 29.25976562 C-0.038114 19.50649515 -0.02052785 9.75325476 0 0 Z " fill="#D37D8A" transform="translate(322,231)"/>
<path d="M0 0 C15.84 0 31.68 0 48 0 C48 0.99 48 1.98 48 3 C46.02 3.99 46.02 3.99 44 5 C43.4332148 9.56122074 43.4332148 9.56122074 45.125 13.70263672 C46.68372919 15.37147145 48.30063906 16.91228529 50 18.4375 C50.85851562 19.24864258 50.85851562 19.24864258 51.734375 20.07617188 C53.14087906 21.40062987 54.56844799 22.70265599 56 24 C60.50401922 21.99277404 63.39539643 19.17576765 66 15 C66.83533882 11.32813324 66.83533882 11.32813324 66 8 C63.1383223 5.27552602 60.59675415 4.47049742 56.75 3.8125 C55.85796875 3.65394531 54.9659375 3.49539062 54.046875 3.33203125 C53.37140625 3.22246094 52.6959375 3.11289063 52 3 C52 2.01 52 1.02 52 0 C63.55 0 75.1 0 87 0 C87 0.99 87 1.98 87 3 C86.32710938 3.39832031 85.65421875 3.79664063 84.9609375 4.20703125 C80.80135133 6.72583079 77.88980731 10.11784623 74.625 13.6875 C73.67367187 14.71133789 73.67367187 14.71133789 72.703125 15.75585938 C68.94671443 19.81508263 65.28188955 23.94617299 61.65185547 28.1184082 C58.77527684 31.39505489 55.80246636 34.58206093 52.83203125 37.7734375 C50.39170644 40.41424225 48.09075014 43.07294981 46 46 C41.36592446 45.15344364 39.1913367 42.34619959 36.1875 38.9375 C35.6519751 38.34332275 35.1164502 37.74914551 34.56469727 37.13696289 C31.28537275 33.48802507 28.04872313 29.80084607 24.83984375 26.08984375 C21.96679388 22.82640069 19.01493341 19.63486457 16.05981445 16.44580078 C12.77004721 12.88458932 9.63994938 9.22799883 6.6328125 5.42578125 C4.52494111 3.58517585 2.73617603 3.34781899 0 3 C0 2.01 0 1.02 0 0 Z " fill="#11BDDD" transform="translate(206,168)"/>
<path d="M0 0 C2.1015625 -0.40625 2.1015625 -0.40625 5 0 C7.42707295 1.89171216 9.36629214 4.17873508 11.375 6.5 C11.9529834 7.14565918 12.5309668 7.79131836 13.12646484 8.45654297 C14.76494496 10.29261944 16.3852068 12.14309448 18 14 C18.66515625 14.75539062 19.3303125 15.51078125 20.015625 16.2890625 C21.07377946 17.49618045 22.12480972 18.70958757 23.16796875 19.9296875 C24.70047829 21.6615213 26.26491638 23.33757033 27.86328125 25.0078125 C28.36972168 25.5426123 28.87616211 26.07741211 29.39794922 26.62841797 C30.40575462 27.68992185 31.42146369 28.74399078 32.44580078 29.78955078 C35.34089353 32.85500275 36 33.59469967 36 38 C33 38 33 38 31.48535156 36.75 C30.69596191 35.88375 30.69596191 35.88375 29.890625 35 C29.30450439 34.36425049 28.71838379 33.72850098 28.11450195 33.07348633 C27.49921631 32.38923584 26.88393066 31.70498535 26.25 31 C25.61602295 30.30737061 24.9820459 29.61474121 24.32885742 28.90112305 C20.76348628 24.99404946 17.23462093 21.05579795 13.79296875 17.0390625 C12.27961344 15.31799176 10.73953427 13.63583838 9.17578125 11.9609375 C8.42204224 11.15112427 8.42204224 11.15112427 7.65307617 10.32495117 C6.65333748 9.25365425 5.64973402 8.1859477 4.6418457 7.12231445 C2.42830789 4.7463438 1.04061086 3.12183258 0 0 Z " fill="#B574AE" transform="translate(216,171)"/>
</svg>
